<?xml version="1.0" encoding="UTF-8" standalone="no"?>
<!DOCTYPE svg PUBLIC "-//W3C//DTD SVG 1.1//EN"
 "http://www.w3.org/Graphics/SVG/1.1/DTD/svg11.dtd">
<!-- Generated by graphviz version 2.36.0 (20140111.2315)
 -->
<!-- Title: controllers_diagram Pages: 1 -->
<svg width="643pt" height="588pt"
 viewBox="0.00 0.00 643.00 588.00" xmlns="http://www.w3.org/2000/svg" xmlns:xlink="http://www.w3.org/1999/xlink">
<g id="graph0" class="graph" transform="scale(1 1) rotate(0) translate(4 584)">
<title>controllers_diagram</title>
<polygon fill="white" stroke="none" points="-4,4 -4,-584 639,-584 639,4 -4,4"/>
<!-- _diagram_info -->
<g id="node1" class="node"><title>_diagram_info</title>
<text text-anchor="start" x="386" y="-459.6" font-family="Times,serif" font-size="13.00">Controllers diagram</text>
<text text-anchor="start" x="386" y="-445.6" font-family="Times,serif" font-size="13.00">Date: Apr 25 2015 &#45; 18:15</text>
<text text-anchor="start" x="386" y="-431.6" font-family="Times,serif" font-size="13.00">Migration version: 20150416011634</text>
<text text-anchor="start" x="386" y="-417.6" font-family="Times,serif" font-size="13.00">Generated by RailRoady 1.3.0</text>
<text text-anchor="start" x="386" y="-403.6" font-family="Times,serif" font-size="13.00">http://railroady.prestonlee.com</text>
</g>
<!-- ApplicationController -->
<g id="node2" class="node"><title>ApplicationController</title>
<path fill="none" stroke="black" d="M174,-396.5C174,-396.5 322,-396.5 322,-396.5 328,-396.5 334,-402.5 334,-408.5 334,-408.5 334,-478.5 334,-478.5 334,-484.5 328,-490.5 322,-490.5 322,-490.5 174,-490.5 174,-490.5 168,-490.5 162,-484.5 162,-478.5 162,-478.5 162,-408.5 162,-408.5 162,-402.5 168,-396.5 174,-396.5"/>
<text text-anchor="middle" x="248" y="-475.3" font-family="Times,serif" font-size="14.00">ApplicationController</text>
<polyline fill="none" stroke="black" points="162,-467.5 334,-467.5 "/>
<polyline fill="none" stroke="black" points="162,-443.5 334,-443.5 "/>
<polyline fill="none" stroke="black" points="162,-419.5 334,-419.5 "/>
<text text-anchor="start" x="170" y="-404.3" font-family="Times,serif" font-size="14.00">_layout</text>
</g>
<!-- HomeController -->
<g id="node3" class="node"><title>HomeController</title>
<path fill="none" stroke="black" d="M444,-18.5C444,-18.5 553,-18.5 553,-18.5 559,-18.5 565,-24.5 565,-30.5 565,-30.5 565,-99.5 565,-99.5 565,-105.5 559,-111.5 553,-111.5 553,-111.5 444,-111.5 444,-111.5 438,-111.5 432,-105.5 432,-99.5 432,-99.5 432,-30.5 432,-30.5 432,-24.5 438,-18.5 444,-18.5"/>
<text text-anchor="middle" x="498.5" y="-96.3" font-family="Times,serif" font-size="14.00">HomeController</text>
<polyline fill="none" stroke="black" points="432,-88.5 565,-88.5 "/>
<text text-anchor="start" x="440" y="-73.3" font-family="Times,serif" font-size="14.00">index</text>
<polyline fill="none" stroke="black" points="432,-65.5 565,-65.5 "/>
<polyline fill="none" stroke="black" points="432,-41.5 565,-41.5 "/>
<text text-anchor="start" x="440" y="-26.3" font-family="Times,serif" font-size="14.00">_layout</text>
</g>
<!-- LocationsController -->
<g id="node4" class="node"><title>LocationsController</title>
<path fill="none" stroke="black" d="M354,-144.5C354,-144.5 490,-144.5 490,-144.5 496,-144.5 502,-150.5 502,-156.5 502,-156.5 502,-345.5 502,-345.5 502,-351.5 496,-357.5 490,-357.5 490,-357.5 354,-357.5 354,-357.5 348,-357.5 342,-351.5 342,-345.5 342,-345.5 342,-156.5 342,-156.5 342,-150.5 348,-144.5 354,-144.5"/>
<text text-anchor="middle" x="422" y="-342.3" font-family="Times,serif" font-size="14.00">LocationsController</text>
<polyline fill="none" stroke="black" points="342,-334.5 502,-334.5 "/>
<text text-anchor="start" x="350" y="-319.3" font-family="Times,serif" font-size="14.00">create</text>
<text text-anchor="start" x="350" y="-304.3" font-family="Times,serif" font-size="14.00">destroy</text>
<text text-anchor="start" x="350" y="-289.3" font-family="Times,serif" font-size="14.00">edit</text>
<text text-anchor="start" x="350" y="-274.3" font-family="Times,serif" font-size="14.00">index</text>
<text text-anchor="start" x="350" y="-259.3" font-family="Times,serif" font-size="14.00">new</text>
<text text-anchor="start" x="350" y="-244.3" font-family="Times,serif" font-size="14.00">show</text>
<text text-anchor="start" x="350" y="-229.3" font-family="Times,serif" font-size="14.00">update</text>
<polyline fill="none" stroke="black" points="342,-221.5 502,-221.5 "/>
<polyline fill="none" stroke="black" points="342,-197.5 502,-197.5 "/>
<text text-anchor="start" x="350" y="-182.3" font-family="Times,serif" font-size="14.00">_layout</text>
<text text-anchor="start" x="350" y="-167.3" font-family="Times,serif" font-size="14.00">location_params</text>
<text text-anchor="start" x="350" y="-152.3" font-family="Times,serif" font-size="14.00">set_location</text>
</g>
<!-- ManagerController -->
<g id="node5" class="node"><title>ManagerController</title>
<path fill="none" stroke="black" d="M246,-0.5C246,-0.5 377,-0.5 377,-0.5 383,-0.5 389,-6.5 389,-12.5 389,-12.5 389,-96.5 389,-96.5 389,-102.5 383,-108.5 377,-108.5 377,-108.5 246,-108.5 246,-108.5 240,-108.5 234,-102.5 234,-96.5 234,-96.5 234,-12.5 234,-12.5 234,-6.5 240,-0.5 246,-0.5"/>
<text text-anchor="middle" x="311.5" y="-93.3" font-family="Times,serif" font-size="14.00">ManagerController</text>
<polyline fill="none" stroke="black" points="234,-85.5 389,-85.5 "/>
<text text-anchor="start" x="242" y="-70.3" font-family="Times,serif" font-size="14.00">download</text>
<text text-anchor="start" x="242" y="-55.3" font-family="Times,serif" font-size="14.00">upload</text>
<polyline fill="none" stroke="black" points="234,-47.5 389,-47.5 "/>
<polyline fill="none" stroke="black" points="234,-23.5 389,-23.5 "/>
<text text-anchor="start" x="242" y="-8.3" font-family="Times,serif" font-size="14.00">_layout</text>
</g>
<!-- AccessPointsController -->
<g id="node6" class="node"><title>AccessPointsController</title>
<path fill="none" stroke="black" d="M138,-144.5C138,-144.5 299,-144.5 299,-144.5 305,-144.5 311,-150.5 311,-156.5 311,-156.5 311,-345.5 311,-345.5 311,-351.5 305,-357.5 299,-357.5 299,-357.5 138,-357.5 138,-357.5 132,-357.5 126,-351.5 126,-345.5 126,-345.5 126,-156.5 126,-156.5 126,-150.5 132,-144.5 138,-144.5"/>
<text text-anchor="middle" x="218.5" y="-342.3" font-family="Times,serif" font-size="14.00">AccessPointsController</text>
<polyline fill="none" stroke="black" points="126,-334.5 311,-334.5 "/>
<text text-anchor="start" x="134" y="-319.3" font-family="Times,serif" font-size="14.00">create</text>
<text text-anchor="start" x="134" y="-304.3" font-family="Times,serif" font-size="14.00">destroy</text>
<text text-anchor="start" x="134" y="-289.3" font-family="Times,serif" font-size="14.00">edit</text>
<text text-anchor="start" x="134" y="-274.3" font-family="Times,serif" font-size="14.00">index</text>
<text text-anchor="start" x="134" y="-259.3" font-family="Times,serif" font-size="14.00">new</text>
<text text-anchor="start" x="134" y="-244.3" font-family="Times,serif" font-size="14.00">show</text>
<text text-anchor="start" x="134" y="-229.3" font-family="Times,serif" font-size="14.00">update</text>
<polyline fill="none" stroke="black" points="126,-221.5 311,-221.5 "/>
<polyline fill="none" stroke="black" points="126,-197.5 311,-197.5 "/>
<text text-anchor="start" x="134" y="-182.3" font-family="Times,serif" font-size="14.00">_layout</text>
<text text-anchor="start" x="134" y="-167.3" font-family="Times,serif" font-size="14.00">access_point_params</text>
<text text-anchor="start" x="134" y="-152.3" font-family="Times,serif" font-size="14.00">set_access_point</text>
</g>
<!-- HelpController -->
<g id="node7" class="node"><title>HelpController</title>
<path fill="none" stroke="black" d="M12,-486.5C12,-486.5 113,-486.5 113,-486.5 119,-486.5 125,-492.5 125,-498.5 125,-498.5 125,-567.5 125,-567.5 125,-573.5 119,-579.5 113,-579.5 113,-579.5 12,-579.5 12,-579.5 6,-579.5 0,-573.5 0,-567.5 0,-567.5 0,-498.5 0,-498.5 0,-492.5 6,-486.5 12,-486.5"/>
<text text-anchor="middle" x="62.5" y="-564.3" font-family="Times,serif" font-size="14.00">HelpController</text>
<polyline fill="none" stroke="black" points="0,-556.5 125,-556.5 "/>
<text text-anchor="start" x="8" y="-541.3" font-family="Times,serif" font-size="14.00">index</text>
<polyline fill="none" stroke="black" points="0,-533.5 125,-533.5 "/>
<polyline fill="none" stroke="black" points="0,-509.5 125,-509.5 "/>
<text text-anchor="start" x="8" y="-494.3" font-family="Times,serif" font-size="14.00">_layout</text>
</g>
</g>
</svg>
