<?xml version="1.0" encoding="UTF-8" standalone="no"?>
<!DOCTYPE svg PUBLIC "-//W3C//DTD SVG 1.1//EN"
 "http://www.w3.org/Graphics/SVG/1.1/DTD/svg11.dtd">
<!-- Generated by graphviz version 2.36.0 (20140111.2315)
 -->
<!-- Title: controllers_diagram Pages: 1 -->
<svg width="517pt" height="499pt"
 viewBox="0.00 0.00 517.00 499.00" xmlns="http://www.w3.org/2000/svg" xmlns:xlink="http://www.w3.org/1999/xlink">
<g id="graph0" class="graph" transform="scale(1 1) rotate(0) translate(4 495)">
<title>controllers_diagram</title>
<polygon fill="white" stroke="none" points="-4,4 -4,-495 513,-495 513,4 -4,4"/>
<!-- _diagram_info -->
<g id="node1" class="node"><title>_diagram_info</title>
<text text-anchor="start" x="260" y="-459.6" font-family="Times,serif" font-size="13.00">Controllers diagram</text>
<text text-anchor="start" x="260" y="-445.6" font-family="Times,serif" font-size="13.00">Date: Apr 25 2015 &#45; 21:17</text>
<text text-anchor="start" x="260" y="-431.6" font-family="Times,serif" font-size="13.00">Migration version: 20150416011634</text>
<text text-anchor="start" x="260" y="-417.6" font-family="Times,serif" font-size="13.00">Generated by RailRoady 1.3.0</text>
<text text-anchor="start" x="260" y="-403.6" font-family="Times,serif" font-size="13.00">http://railroady.prestonlee.com</text>
</g>
<!-- ApplicationController -->
<g id="node2" class="node"><title>ApplicationController</title>
<path fill="none" stroke="black" d="M48,-396.5C48,-396.5 196,-396.5 196,-396.5 202,-396.5 208,-402.5 208,-408.5 208,-408.5 208,-478.5 208,-478.5 208,-484.5 202,-490.5 196,-490.5 196,-490.5 48,-490.5 48,-490.5 42,-490.5 36,-484.5 36,-478.5 36,-478.5 36,-408.5 36,-408.5 36,-402.5 42,-396.5 48,-396.5"/>
<text text-anchor="middle" x="122" y="-475.3" font-family="Times,serif" font-size="14.00">ApplicationController</text>
<polyline fill="none" stroke="black" points="36,-467.5 208,-467.5 "/>
<polyline fill="none" stroke="black" points="36,-443.5 208,-443.5 "/>
<polyline fill="none" stroke="black" points="36,-419.5 208,-419.5 "/>
<text text-anchor="start" x="44" y="-404.3" font-family="Times,serif" font-size="14.00">_layout</text>
</g>
<!-- HomeController -->
<g id="node3" class="node"><title>HomeController</title>
<path fill="none" stroke="black" d="M318,-18.5C318,-18.5 427,-18.5 427,-18.5 433,-18.5 439,-24.5 439,-30.5 439,-30.5 439,-99.5 439,-99.5 439,-105.5 433,-111.5 427,-111.5 427,-111.5 318,-111.5 318,-111.5 312,-111.5 306,-105.5 306,-99.5 306,-99.5 306,-30.5 306,-30.5 306,-24.5 312,-18.5 318,-18.5"/>
<text text-anchor="middle" x="372.5" y="-96.3" font-family="Times,serif" font-size="14.00">HomeController</text>
<polyline fill="none" stroke="black" points="306,-88.5 439,-88.5 "/>
<text text-anchor="start" x="314" y="-73.3" font-family="Times,serif" font-size="14.00">index</text>
<polyline fill="none" stroke="black" points="306,-65.5 439,-65.5 "/>
<polyline fill="none" stroke="black" points="306,-41.5 439,-41.5 "/>
<text text-anchor="start" x="314" y="-26.3" font-family="Times,serif" font-size="14.00">_layout</text>
</g>
<!-- LocationsController -->
<g id="node4" class="node"><title>LocationsController</title>
<path fill="none" stroke="black" d="M228,-144.5C228,-144.5 364,-144.5 364,-144.5 370,-144.5 376,-150.5 376,-156.5 376,-156.5 376,-345.5 376,-345.5 376,-351.5 370,-357.5 364,-357.5 364,-357.5 228,-357.5 228,-357.5 222,-357.5 216,-351.5 216,-345.5 216,-345.5 216,-156.5 216,-156.5 216,-150.5 222,-144.5 228,-144.5"/>
<text text-anchor="middle" x="296" y="-342.3" font-family="Times,serif" font-size="14.00">LocationsController</text>
<polyline fill="none" stroke="black" points="216,-334.5 376,-334.5 "/>
<text text-anchor="start" x="224" y="-319.3" font-family="Times,serif" font-size="14.00">create</text>
<text text-anchor="start" x="224" y="-304.3" font-family="Times,serif" font-size="14.00">destroy</text>
<text text-anchor="start" x="224" y="-289.3" font-family="Times,serif" font-size="14.00">edit</text>
<text text-anchor="start" x="224" y="-274.3" font-family="Times,serif" font-size="14.00">index</text>
<text text-anchor="start" x="224" y="-259.3" font-family="Times,serif" font-size="14.00">new</text>
<text text-anchor="start" x="224" y="-244.3" font-family="Times,serif" font-size="14.00">show</text>
<text text-anchor="start" x="224" y="-229.3" font-family="Times,serif" font-size="14.00">update</text>
<polyline fill="none" stroke="black" points="216,-221.5 376,-221.5 "/>
<polyline fill="none" stroke="black" points="216,-197.5 376,-197.5 "/>
<text text-anchor="start" x="224" y="-182.3" font-family="Times,serif" font-size="14.00">_layout</text>
<text text-anchor="start" x="224" y="-167.3" font-family="Times,serif" font-size="14.00">location_params</text>
<text text-anchor="start" x="224" y="-152.3" font-family="Times,serif" font-size="14.00">set_location</text>
</g>
<!-- ManagerController -->
<g id="node5" class="node"><title>ManagerController</title>
<path fill="none" stroke="black" d="M120,-0.5C120,-0.5 251,-0.5 251,-0.5 257,-0.5 263,-6.5 263,-12.5 263,-12.5 263,-96.5 263,-96.5 263,-102.5 257,-108.5 251,-108.5 251,-108.5 120,-108.5 120,-108.5 114,-108.5 108,-102.5 108,-96.5 108,-96.5 108,-12.5 108,-12.5 108,-6.5 114,-0.5 120,-0.5"/>
<text text-anchor="middle" x="185.5" y="-93.3" font-family="Times,serif" font-size="14.00">ManagerController</text>
<polyline fill="none" stroke="black" points="108,-85.5 263,-85.5 "/>
<text text-anchor="start" x="116" y="-70.3" font-family="Times,serif" font-size="14.00">download</text>
<text text-anchor="start" x="116" y="-55.3" font-family="Times,serif" font-size="14.00">upload</text>
<polyline fill="none" stroke="black" points="108,-47.5 263,-47.5 "/>
<polyline fill="none" stroke="black" points="108,-23.5 263,-23.5 "/>
<text text-anchor="start" x="116" y="-8.3" font-family="Times,serif" font-size="14.00">_layout</text>
</g>
<!-- AccessPointsController -->
<g id="node6" class="node"><title>AccessPointsController</title>
<path fill="none" stroke="black" d="M12,-144.5C12,-144.5 173,-144.5 173,-144.5 179,-144.5 185,-150.5 185,-156.5 185,-156.5 185,-345.5 185,-345.5 185,-351.5 179,-357.5 173,-357.5 173,-357.5 12,-357.5 12,-357.5 6,-357.5 -1.42109e-14,-351.5 -1.42109e-14,-345.5 -1.42109e-14,-345.5 -1.42109e-14,-156.5 -1.42109e-14,-156.5 -1.42109e-14,-150.5 6,-144.5 12,-144.5"/>
<text text-anchor="middle" x="92.5" y="-342.3" font-family="Times,serif" font-size="14.00">AccessPointsController</text>
<polyline fill="none" stroke="black" points="-1.42109e-14,-334.5 185,-334.5 "/>
<text text-anchor="start" x="8" y="-319.3" font-family="Times,serif" font-size="14.00">create</text>
<text text-anchor="start" x="8" y="-304.3" font-family="Times,serif" font-size="14.00">destroy</text>
<text text-anchor="start" x="8" y="-289.3" font-family="Times,serif" font-size="14.00">edit</text>
<text text-anchor="start" x="8" y="-274.3" font-family="Times,serif" font-size="14.00">index</text>
<text text-anchor="start" x="8" y="-259.3" font-family="Times,serif" font-size="14.00">new</text>
<text text-anchor="start" x="8" y="-244.3" font-family="Times,serif" font-size="14.00">show</text>
<text text-anchor="start" x="8" y="-229.3" font-family="Times,serif" font-size="14.00">update</text>
<polyline fill="none" stroke="black" points="-1.42109e-14,-221.5 185,-221.5 "/>
<polyline fill="none" stroke="black" points="-1.42109e-14,-197.5 185,-197.5 "/>
<text text-anchor="start" x="8" y="-182.3" font-family="Times,serif" font-size="14.00">_layout</text>
<text text-anchor="start" x="8" y="-167.3" font-family="Times,serif" font-size="14.00">access_point_params</text>
<text text-anchor="start" x="8" y="-152.3" font-family="Times,serif" font-size="14.00">set_access_point</text>
</g>
</g>
</svg>
