<?xml version="1.0" encoding="UTF-8" standalone="no"?>
<!DOCTYPE svg PUBLIC "-//W3C//DTD SVG 1.1//EN"
 "http://www.w3.org/Graphics/SVG/1.1/DTD/svg11.dtd">
<!-- Generated by graphviz version 2.36.0 (20140111.2315)
 -->
<!-- Title: models_diagram Pages: 1 -->
<svg width="1109pt" height="236pt"
 viewBox="0.00 0.00 1109.00 236.00" xmlns="http://www.w3.org/2000/svg" xmlns:xlink="http://www.w3.org/1999/xlink">
<g id="graph0" class="graph" transform="scale(1 1) rotate(0) translate(4 232)">
<title>models_diagram</title>
<polygon fill="white" stroke="none" points="-4,4 -4,-232 1105,-232 1105,4 -4,4"/>
<!-- _diagram_info -->
<g id="node1" class="node"><title>_diagram_info</title>
<text text-anchor="start" x="7.5" y="-138.6" font-family="Times,serif" font-size="13.00">Models diagram</text>
<text text-anchor="start" x="7.5" y="-124.6" font-family="Times,serif" font-size="13.00">Date: Apr 25 2015 &#45; 21:17</text>
<text text-anchor="start" x="7.5" y="-110.6" font-family="Times,serif" font-size="13.00">Migration version: 20150416011634</text>
<text text-anchor="start" x="7.5" y="-96.6" font-family="Times,serif" font-size="13.00">Generated by RailRoady 1.3.0</text>
<text text-anchor="start" x="7.5" y="-82.6" font-family="Times,serif" font-size="13.00">http://railroady.prestonlee.com</text>
</g>
<!-- DbFile -->
<g id="node2" class="node"><title>DbFile</title>
<path fill="none" stroke="black" d="M287,-76C287,-76 433,-76 433,-76 439,-76 445,-82 445,-88 445,-88 445,-140 445,-140 445,-146 439,-152 433,-152 433,-152 287,-152 287,-152 281,-152 275,-146 275,-140 275,-140 275,-88 275,-88 275,-82 281,-76 287,-76"/>
<text text-anchor="middle" x="360" y="-136.8" font-family="Times,serif" font-size="14.00">DbFile</text>
<polyline fill="none" stroke="black" points="275,-129 445,-129 "/>
<text text-anchor="start" x="283" y="-113.8" font-family="Times,serif" font-size="14.00">id :integer</text>
<text text-anchor="start" x="283" y="-98.8" font-family="Times,serif" font-size="14.00">created_at :datetime</text>
<text text-anchor="start" x="283" y="-83.8" font-family="Times,serif" font-size="14.00">updated_at :datetime</text>
</g>
<!-- AccessPoint -->
<g id="node3" class="node"><title>AccessPoint</title>
<path fill="none" stroke="black" d="M475,-46C475,-46 621,-46 621,-46 627,-46 633,-52 633,-58 633,-58 633,-170 633,-170 633,-176 627,-182 621,-182 621,-182 475,-182 475,-182 469,-182 463,-176 463,-170 463,-170 463,-58 463,-58 463,-52 469,-46 475,-46"/>
<text text-anchor="middle" x="548" y="-166.8" font-family="Times,serif" font-size="14.00">AccessPoint</text>
<polyline fill="none" stroke="black" points="463,-159 633,-159 "/>
<text text-anchor="start" x="471" y="-143.8" font-family="Times,serif" font-size="14.00">id :integer</text>
<text text-anchor="start" x="471" y="-128.8" font-family="Times,serif" font-size="14.00">mac :string</text>
<text text-anchor="start" x="471" y="-113.8" font-family="Times,serif" font-size="14.00">location :string</text>
<text text-anchor="start" x="471" y="-98.8" font-family="Times,serif" font-size="14.00">time :datetime</text>
<text text-anchor="start" x="471" y="-83.8" font-family="Times,serif" font-size="14.00">notes :string</text>
<text text-anchor="start" x="471" y="-68.8" font-family="Times,serif" font-size="14.00">created_at :datetime</text>
<text text-anchor="start" x="471" y="-53.8" font-family="Times,serif" font-size="14.00">updated_at :datetime</text>
</g>
<!-- Location -->
<g id="node4" class="node"><title>Location</title>
<path fill="none" stroke="black" d="M663,-61C663,-61 809,-61 809,-61 815,-61 821,-67 821,-73 821,-73 821,-155 821,-155 821,-161 815,-167 809,-167 809,-167 663,-167 663,-167 657,-167 651,-161 651,-155 651,-155 651,-73 651,-73 651,-67 657,-61 663,-61"/>
<text text-anchor="middle" x="736" y="-151.8" font-family="Times,serif" font-size="14.00">Location</text>
<polyline fill="none" stroke="black" points="651,-144 821,-144 "/>
<text text-anchor="start" x="659" y="-128.8" font-family="Times,serif" font-size="14.00">id :integer</text>
<text text-anchor="start" x="659" y="-113.8" font-family="Times,serif" font-size="14.00">loc :string</text>
<text text-anchor="start" x="659" y="-98.8" font-family="Times,serif" font-size="14.00">time :datetime</text>
<text text-anchor="start" x="659" y="-83.8" font-family="Times,serif" font-size="14.00">created_at :datetime</text>
<text text-anchor="start" x="659" y="-68.8" font-family="Times,serif" font-size="14.00">updated_at :datetime</text>
</g>
<!-- User -->
<g id="node5" class="node"><title>User</title>
<path fill="none" stroke="black" d="M851,-1C851,-1 1089,-1 1089,-1 1095,-1 1101,-7 1101,-13 1101,-13 1101,-215 1101,-215 1101,-221 1095,-227 1089,-227 1089,-227 851,-227 851,-227 845,-227 839,-221 839,-215 839,-215 839,-13 839,-13 839,-7 845,-1 851,-1"/>
<text text-anchor="middle" x="970" y="-211.8" font-family="Times,serif" font-size="14.00">User</text>
<polyline fill="none" stroke="black" points="839,-204 1101,-204 "/>
<text text-anchor="start" x="847" y="-188.8" font-family="Times,serif" font-size="14.00">id :integer</text>
<text text-anchor="start" x="847" y="-173.8" font-family="Times,serif" font-size="14.00">email :string</text>
<text text-anchor="start" x="847" y="-158.8" font-family="Times,serif" font-size="14.00">encrypted_password :string</text>
<text text-anchor="start" x="847" y="-143.8" font-family="Times,serif" font-size="14.00">reset_password_token :string</text>
<text text-anchor="start" x="847" y="-128.8" font-family="Times,serif" font-size="14.00">reset_password_sent_at :datetime</text>
<text text-anchor="start" x="847" y="-113.8" font-family="Times,serif" font-size="14.00">remember_created_at :datetime</text>
<text text-anchor="start" x="847" y="-98.8" font-family="Times,serif" font-size="14.00">sign_in_count :integer</text>
<text text-anchor="start" x="847" y="-83.8" font-family="Times,serif" font-size="14.00">current_sign_in_at :datetime</text>
<text text-anchor="start" x="847" y="-68.8" font-family="Times,serif" font-size="14.00">last_sign_in_at :datetime</text>
<text text-anchor="start" x="847" y="-53.8" font-family="Times,serif" font-size="14.00">current_sign_in_ip :string</text>
<text text-anchor="start" x="847" y="-38.8" font-family="Times,serif" font-size="14.00">last_sign_in_ip :string</text>
<text text-anchor="start" x="847" y="-23.8" font-family="Times,serif" font-size="14.00">created_at :datetime</text>
<text text-anchor="start" x="847" y="-8.8" font-family="Times,serif" font-size="14.00">updated_at :datetime</text>
</g>
</g>
</svg>
